<svg viewBox="0 0 1024 1024" width="1024" height="1024" xmlns="http://www.w3.org/2000/svg">
  <defs>
    <radialGradient id="glowBg" cx="50%" cy="48%" r="52%">
      <stop offset="0%" stop-color="#00FF94" stop-opacity="0.18"/>
      <stop offset="100%" stop-color="#00FF94" stop-opacity="0"/>
    </radialGradient>
    <radialGradient id="centerGlow" cx="50%" cy="50%" r="50%">
      <stop offset="0%" stop-color="#00FF94" stop-opacity="0.35"/>
      <stop offset="100%" stop-color="#00FF94" stop-opacity="0"/>
    </radialGradient>
    <filter id="blurGlow" x="-40%" y="-40%" width="180%" height="180%">
      <feGaussianBlur stdDeviation="14"/>
    </filter>
    <filter id="blurSoft" x="-30%" y="-30%" width="160%" height="160%">
      <feGaussianBlur stdDeviation="7"/>
    </filter>
    <clipPath id="roundClip">
      <rect width="1024" height="1024" rx="200" ry="200"/>
    </clipPath>
  </defs>

  <!-- Fondo negro profundo -->
  <rect width="1024" height="1024" rx="200" ry="200" fill="#05050f"/>

  <!-- Textura de puntos sutil -->
  <g opacity="0.07" clip-path="url(#roundClip)">
    <g fill="#00FF94">
      <circle cx="64" cy="64" r="2"/>   <circle cx="160" cy="64" r="2"/>   <circle cx="256" cy="64" r="2"/>   <circle cx="352" cy="64" r="2"/>   <circle cx="448" cy="64" r="2"/>   <circle cx="544" cy="64" r="2"/>   <circle cx="640" cy="64" r="2"/>   <circle cx="736" cy="64" r="2"/>   <circle cx="832" cy="64" r="2"/>   <circle cx="928" cy="64" r="2"/>
      <circle cx="64" cy="160" r="2"/>  <circle cx="160" cy="160" r="2"/>  <circle cx="256" cy="160" r="2"/>  <circle cx="352" cy="160" r="2"/>  <circle cx="448" cy="160" r="2"/>  <circle cx="544" cy="160" r="2"/>  <circle cx="640" cy="160" r="2"/>  <circle cx="736" cy="160" r="2"/>  <circle cx="832" cy="160" r="2"/>  <circle cx="928" cy="160" r="2"/>
      <circle cx="64" cy="256" r="2"/>  <circle cx="160" cy="256" r="2"/>  <circle cx="256" cy="256" r="2"/>  <circle cx="352" cy="256" r="2"/>  <circle cx="448" cy="256" r="2"/>  <circle cx="544" cy="256" r="2"/>  <circle cx="640" cy="256" r="2"/>  <circle cx="736" cy="256" r="2"/>  <circle cx="832" cy="256" r="2"/>  <circle cx="928" cy="256" r="2"/>
      <circle cx="64" cy="352" r="2"/>  <circle cx="160" cy="352" r="2"/>  <circle cx="256" cy="352" r="2"/>  <circle cx="352" cy="352" r="2"/>  <circle cx="448" cy="352" r="2"/>  <circle cx="544" cy="352" r="2"/>  <circle cx="640" cy="352" r="2"/>  <circle cx="736" cy="352" r="2"/>  <circle cx="832" cy="352" r="2"/>  <circle cx="928" cy="352" r="2"/>
      <circle cx="64" cy="448" r="2"/>  <circle cx="160" cy="448" r="2"/>  <circle cx="256" cy="448" r="2"/>  <circle cx="352" cy="448" r="2"/>  <circle cx="448" cy="448" r="2"/>  <circle cx="544" cy="448" r="2"/>  <circle cx="640" cy="448" r="2"/>  <circle cx="736" cy="448" r="2"/>  <circle cx="832" cy="448" r="2"/>  <circle cx="928" cy="448" r="2"/>
      <circle cx="64" cy="544" r="2"/>  <circle cx="160" cy="544" r="2"/>  <circle cx="256" cy="544" r="2"/>  <circle cx="352" cy="544" r="2"/>  <circle cx="448" cy="544" r="2"/>  <circle cx="544" cy="544" r="2"/>  <circle cx="640" cy="544" r="2"/>  <circle cx="736" cy="544" r="2"/>  <circle cx="832" cy="544" r="2"/>  <circle cx="928" cy="544" r="2"/>
      <circle cx="64" cy="640" r="2"/>  <circle cx="160" cy="640" r="2"/>  <circle cx="256" cy="640" r="2"/>  <circle cx="352" cy="640" r="2"/>  <circle cx="448" cy="640" r="2"/>  <circle cx="544" cy="640" r="2"/>  <circle cx="640" cy="640" r="2"/>  <circle cx="736" cy="640" r="2"/>  <circle cx="832" cy="640" r="2"/>  <circle cx="928" cy="640" r="2"/>
      <circle cx="64" cy="736" r="2"/>  <circle cx="160" cy="736" r="2"/>  <circle cx="256" cy="736" r="2"/>  <circle cx="352" cy="736" r="2"/>  <circle cx="448" cy="736" r="2"/>  <circle cx="544" cy="736" r="2"/>  <circle cx="640" cy="736" r="2"/>  <circle cx="736" cy="736" r="2"/>  <circle cx="832" cy="736" r="2"/>  <circle cx="928" cy="736" r="2"/>
      <circle cx="64" cy="832" r="2"/>  <circle cx="160" cy="832" r="2"/>  <circle cx="256" cy="832" r="2"/>  <circle cx="352" cy="832" r="2"/>  <circle cx="448" cy="832" r="2"/>  <circle cx="544" cy="832" r="2"/>  <circle cx="640" cy="832" r="2"/>  <circle cx="736" cy="832" r="2"/>  <circle cx="832" cy="832" r="2"/>  <circle cx="928" cy="832" r="2"/>
      <circle cx="64" cy="928" r="2"/>  <circle cx="160" cy="928" r="2"/>  <circle cx="256" cy="928" r="2"/>  <circle cx="352" cy="928" r="2"/>  <circle cx="448" cy="928" r="2"/>  <circle cx="544" cy="928" r="2"/>  <circle cx="640" cy="928" r="2"/>  <circle cx="736" cy="928" r="2"/>  <circle cx="832" cy="928" r="2"/>  <circle cx="928" cy="928" r="2"/>
    </g>
  </g>

  <!-- Resplandor radial central -->
  <circle cx="512" cy="430" r="340" fill="url(#glowBg)"/>

  <!-- Hexágono exterior -->
  <polygon
    points="512,148 764,290 764,574 512,716 260,574 260,290"
    fill="none" stroke="#00FF94" stroke-width="2.5" opacity="0.45"/>

  <!-- Hexágono interior -->
  <polygon
    points="512,182 730,308 730,558 512,682 294,558 294,308"
    fill="none" stroke="#00FF94" stroke-width="1" opacity="0.18"/>

  <!-- Líneas de esquina decorativas (estilo HUD) -->
  <line x1="260" y1="290" x2="220" y2="250" stroke="#00FF94" stroke-width="2" opacity="0.6" stroke-linecap="round"/>
  <line x1="764" y1="290" x2="804" y2="250" stroke="#00FF94" stroke-width="2" opacity="0.6" stroke-linecap="round"/>
  <line x1="764" y1="574" x2="804" y2="614" stroke="#00FF94" stroke-width="2" opacity="0.6" stroke-linecap="round"/>
  <line x1="260" y1="574" x2="220" y2="614" stroke="#00FF94" stroke-width="2" opacity="0.6" stroke-linecap="round"/>

  <!-- === M con GLOW (capa blur detrás) === -->
  <g filter="url(#blurGlow)" opacity="0.45">
    <line x1="318" y1="590" x2="318" y2="290" stroke="#00FF94" stroke-width="72" stroke-linecap="round"/>
    <line x1="706" y1="590" x2="706" y2="290" stroke="#00FF94" stroke-width="72" stroke-linecap="round"/>
    <line x1="318" y1="290" x2="512" y2="480" stroke="#00FF94" stroke-width="64" stroke-linecap="round"/>
    <line x1="706" y1="290" x2="512" y2="480" stroke="#00FF94" stroke-width="64" stroke-linecap="round"/>
  </g>

  <!-- === M nítida encima === -->
  <line x1="318" y1="590" x2="318" y2="290" stroke="#00FF94" stroke-width="48" stroke-linecap="round"/>
  <line x1="706" y1="590" x2="706" y2="290" stroke="#00FF94" stroke-width="48" stroke-linecap="round"/>
  <line x1="318" y1="290" x2="512" y2="480" stroke="#00FF94" stroke-width="42" stroke-linecap="round"/>
  <line x1="706" y1="290" x2="512" y2="480" stroke="#00FF94" stroke-width="42" stroke-linecap="round"/>

  <!-- Punto central con glow -->
  <circle cx="512" cy="480" r="36" fill="#00FF94" filter="url(#blurSoft)" opacity="0.7"/>
  <circle cx="512" cy="480" r="22" fill="#ffffff"/>
  <circle cx="512" cy="480" r="11" fill="#00FF94"/>

  <!-- Puntos en los vértices superiores de la M -->
  <circle cx="318" cy="290" r="14" fill="#00FF94" opacity="0.9" filter="url(#blurSoft)"/>
  <circle cx="318" cy="290" r="8" fill="#00FF94"/>
  <circle cx="706" cy="290" r="14" fill="#00FF94" opacity="0.9" filter="url(#blurSoft)"/>
  <circle cx="706" cy="290" r="8" fill="#00FF94"/>

  <!-- === TEXTO === -->
  <!-- Línea superior decorativa -->
  <rect x="200" y="652" width="624" height="1.5" rx="1" fill="#00FF94" opacity="0.25"/>

  <!-- "MÁQUINA DE VENTAS" -->
  <text
    x="512" y="728"
    font-family="'Arial Black', 'Arial', sans-serif"
    font-size="80"
    font-weight="900"
    letter-spacing="4"
    text-anchor="middle"
    fill="#00FF94">MÁQUINA DE VENTAS</text>

  <!-- Línea separadora -->
  <rect x="300" y="748" width="424" height="2" rx="1" fill="#00FF94" opacity="0.4"/>

  <!-- "PROFESIONAL" -->
  <text
    x="512" y="818"
    font-family="'Arial', sans-serif"
    font-size="44"
    font-weight="400"
    letter-spacing="22"
    text-anchor="middle"
    fill="rgba(0,255,148,0.55)">PROFESIONAL</text>

  <!-- Badge "by InstaVentas" -->
  <rect x="356" y="858" width="312" height="46" rx="23" fill="rgba(0,255,148,0.07)" stroke="#00FF94" stroke-width="1" opacity="0.6"/>
  <text
    x="512" y="889"
    font-family="'Arial', sans-serif"
    font-size="22"
    font-weight="600"
    letter-spacing="4"
    text-anchor="middle"
    fill="rgba(0,255,148,0.55)">by InstaVentas</text>

  <!-- Pequeños destellos decorativos -->
  <line x1="156" y1="176" x2="156" y2="210" stroke="#00FF94" stroke-width="2.5" stroke-linecap="round" opacity="0.5"/>
  <line x1="139" y1="193" x2="173" y2="193" stroke="#00FF94" stroke-width="2.5" stroke-linecap="round" opacity="0.5"/>
  <line x1="144" y1="181" x2="168" y2="205" stroke="#00FF94" stroke-width="1.5" stroke-linecap="round" opacity="0.3"/>
  <line x1="168" y1="181" x2="144" y2="205" stroke="#00FF94" stroke-width="1.5" stroke-linecap="round" opacity="0.3"/>

  <line x1="868" y1="820" x2="868" y2="846" stroke="#00FF94" stroke-width="2" stroke-linecap="round" opacity="0.4"/>
  <line x1="855" y1="833" x2="881" y2="833" stroke="#00FF94" stroke-width="2" stroke-linecap="round" opacity="0.4"/>

  <circle cx="864" cy="196" r="4" fill="#00FF94" opacity="0.5"/>
  <circle cx="160" cy="848" r="3" fill="#00FF94" opacity="0.35"/>
  <circle cx="892" cy="370" r="3" fill="#00FF94" opacity="0.3"/>
  <circle cx="132" cy="650" r="2.5" fill="#00FF94" opacity="0.3"/>
</svg>